<?xml version="1.0" encoding="UTF-8"?><svg viewBox="0 0 193.8 182.5" xmlns="http://www.w3.org/2000/svg" xmlns:xlink="http://www.w3.org/1999/xlink"><defs><linearGradient id="e"><stop stop-color="#ff8d00" stop-opacity=".6" offset="0"/><stop stop-color="#ff5f00" stop-opacity="0" offset="1"/></linearGradient><linearGradient id="b"><stop stop-color="#3d7b26" stop-opacity=".5" offset="0"/><stop stop-color="#3d7b26" stop-opacity="0" offset="1"/></linearGradient><linearGradient id="d"><stop stop-color="#78a314" offset="0"/><stop stop-color="#78a314" stop-opacity="0" offset="1"/></linearGradient><linearGradient id="c"><stop stop-color="#e4e54e" offset="0"/><stop stop-color="#94af32" offset="1"/></linearGradient><linearGradient id="f"><stop stop-color="#ff2800" offset="0"/><stop stop-color="#610f00" offset="1"/></linearGradient><linearGradient id="a"><stop stop-color="#9b380c" stop-opacity=".9" offset="0"/><stop stop-color="#e9e112" stop-opacity=".3" offset="1"/></linearGradient><linearGradient id="i" x1="253.9" x2="372.5" y1="565.1" y2="732.7" gradientUnits="userSpaceOnUse"><stop stop-color="#c7f937" offset="0"/><stop stop-color="#9ac818" offset="1"/></linearGradient><linearGradient id="m" x1="432.3" x2="433" y1="618.7" y2="385.1" gradientUnits="userSpaceOnUse"><stop stop-color="#8f5200" offset="0"/><stop offset="1"/></linearGradient><linearGradient id="n" x1="345.7" x2="493.1" y1="618.9" y2="347.1" gradientUnits="userSpaceOnUse"><stop stop-color="#ffe100" offset="0"/><stop stop-color="#aa9a21" offset="1"/></linearGradient><linearGradient id="A" x1="297.1" x2="578" gradientUnits="userSpaceOnUse"><stop stop-color="#f7c41f" stop-opacity=".8" offset="0"/><stop stop-color="#fff170" stop-opacity="0" offset="1"/></linearGradient><linearGradient id="g" x1="24.6" x2="-2.1" y1="631.1" y2="430" gradientUnits="userSpaceOnUse" xlink:href="#a"/><linearGradient id="j" x1="601.5" x2="475.2" y1="597.1" y2="575" gradientUnits="userSpaceOnUse" xlink:href="#b"/><linearGradient id="o" x1="387.1" x2="399.4" y1="532.4" y2="479.4" gradientUnits="userSpaceOnUse" xlink:href="#c"/><linearGradient id="p" x1="329.8" x2="469.2" gradientUnits="userSpaceOnUse" xlink:href="#d"/><linearGradient id="q" x1="213.5" x2="312.5" y1="457.2" y2="420.9" gradientUnits="userSpaceOnUse" xlink:href="#c"/><linearGradient id="r" x1="207.5" x2="294.1" gradientUnits="userSpaceOnUse" xlink:href="#d"/><linearGradient id="s" x1="590.7" x2="534.8" y1="489.6" y2="437" gradientUnits="userSpaceOnUse" xlink:href="#c"/><linearGradient id="t" x1="511.5" x2="595.6" gradientUnits="userSpaceOnUse" xlink:href="#d"/><linearGradient id="u" x1="300.3" x2="330.9" y1="683.5" y2="641.8" gradientUnits="userSpaceOnUse" xlink:href="#b"/><linearGradient id="v" x1="373.8" x2="411.7" y1="707.3" y2="641.1" gradientUnits="userSpaceOnUse" xlink:href="#b"/><linearGradient id="w" x1="529.5" x2="482.4" y1="697.9" y2="634.6" gradientUnits="userSpaceOnUse" xlink:href="#b"/><linearGradient id="x" x1="355" x2="413.9" y1="679.8" y2="611.2" gradientUnits="userSpaceOnUse" xlink:href="#b"/><linearGradient id="y" x1="552.2" x2="350" y1="353.2" y2="597.3" gradientUnits="userSpaceOnUse" xlink:href="#a"/><radialGradient id="h" cx="306.7" cy="743.2" r="188" gradientTransform="matrix(1.6432 .57536 -.42536 1.2148 -320.18 -533.85)" gradientUnits="userSpaceOnUse" xlink:href="#e"/><radialGradient id="k" cx="-149.9" cy="685.4" r="104.1" gradientTransform="matrix(3.0871 -.56123 .26439 1.4543 808.62 -459)" gradientUnits="userSpaceOnUse" xlink:href="#f"/><radialGradient id="l" cx="-415.7" cy="667.1" r="95.2" gradientTransform="matrix(3.0376 1.4812 -1.0675 2.1892 2189 -244.28)" gradientUnits="userSpaceOnUse" xlink:href="#f"/><radialGradient id="z" cx="552.1" cy="516.9" r="189.7" gradientTransform="matrix(1.0709 -.70464 .46272 .70327 -511.24 364.43)" gradientUnits="userSpaceOnUse" xlink:href="#e"/></defs><g transform="matrix(.44537 0 0 .44537 -78.135 -131.53)"><g transform="translate(441.41 126.82)" fill-rule="evenodd"><path d="M-234 443c-20.6 26.6 11.8 91.8 56.1 111s69.7 25.7 125.5 21.6c58.7-4.4 142.3-33.2 165.8-53.4s28.7-59 14.4-88c-20.4-41.3-206.3-58.6-275.4-41.7-66.2 16-66 23.7-86.5 50.4z" fill="#fff"/><path d="M-234 443c-20.6 26.6 11.8 91.8 56.1 111s69.7 25.7 125.5 21.6c58.7-4.4 142.3-33.2 165.8-53.4s28.7-59 14.4-88c-20.4-41.3-206.3-58.6-275.4-41.7-66.2 16-66 23.7-86.5 50.4z" fill="url(#g)"/><path d="M-234 443c-20.6 26.6 11.8 91.8 56.1 111s69.7 25.7 125.5 21.6c58.7-4.4 142.3-33.2 165.8-53.4s28.7-59 14.4-88c-20.4-41.3-206.3-58.6-275.4-41.7-66.2 16-66 23.7-86.5 50.4z" fill="url(#h)"/></g><path d="M223.5 544c-13.5-9.6-35-1-32 17.3 16.8 9.8-2.9 15.8-12.5 11.5-5.2 7-4.9 16.2 2 20.9-6.3 8.3-3.4 21 9.6 16.7 5.5-3.2 17.7-7.6 8.5 2-7.7 14.2 19.6-.3 13.8 15.3 1.9 10.8-21.3 8.6-5.8 18.6 14.2 8.2 25.1-13.2 38 1.4 15.5 5.9 25.4-7.4 37.4-13 14 .7-3.9 21.3 13.3 23.6 17.2 4.8 32.8-2.8 46.7-11.8 16-4.2-2 25 15 28.1 13.1-8.7 21.4 25.7 28.7 9.4 1.7-10.2.7-25.5 15.2-17.8 9-5.5 7-34.3 22.7-22.2 5 9 13.4 17.1 21.5 6.5 8.8 5.1 22.1 9.8 21.3 21.6 11.3 8.7 27-24.1 25.8-.3 5.6 12.2 12.2-8.3 17.8-9.4 14.3 11 18-5.5 14.9-16.7 9.2-10 0-28 18-30 6.7-9.5 17 19.7 24.9 5.3 4.4-11 13.4 13 20.7.5 8.8-14.9-12.1-35.4-26.8-27.9-9.6 1.9-1.1-23.1-13.4-11.5-11.7 15.8-27.5-17-38.4 3-9.8 16.2-29 20-44.3 28.8-11.5 3.3-31.2 22.2-39.7 8.3-7.4 3.2-14 9-20.3-1-12.2-3.4-24-15.3-36.2-4-14-1-33-10-44.4 3.3 5.4 4.4 14 10.7.7 9-9.8-2-19 10.8-26-1.4-9.3-2.5-19.7 4-23.3-8-10.2 2-17-1.7-22.1-10.1-9-2-16.7-2.4-18.4-13-17.8-4.3-11.8-29.7-21.7-41.2-13.1-13.5 7-3.5 8.8-11.9z" fill="url(#i)" fill-rule="evenodd"/><path d="M579 554.5c-2-1.7 5.4-1 8-1.6 3.5-.9 4 2.3 5.3 4.7 1.7 3.5-2 4.8-4.2 5.8-3 1.5-1.7 4.8.5 5.8 3.2 1.6 4.8.2 6.3 3.2s-3.7 5.7-5.2 6.9a13 13 0 01-8 3.2c-3.2 0-7.2 1.7-8.4 4.2-1 2 2 4.9 2 7.4 0 2.9 2.8 4.2 5.4 4.2 3.8 0 3.8 3.9 3.1 6.3-1 4.5-8.6 1.5-4.7 5.3 2 2-1 5.8-2.1 6.9-1 1-5.6-4.4-6.9-4.8-3-.7-6.5 1.4-9 2.7-3.7 1.8-3.7-4.2-3.7-6.4 0-2 3.3-2.7 5.3-4.7 1.9-1.9 3.1-6.2 4.2-8.5 1.5-2.8 3.2-4.4 3.2-7.9 0-2.2 1.6-6.3 2.1-8.4.7-3 .9-5.6 1.6-8.5.7-2.7 1-5.4 1.6-8 .9-3.5 1-4.4 3.7-7.9z" fill="url(#j)" fill-rule="evenodd"/><path d="M575.6 533.8c8.7 25.9 6.6 86.6-63.5 102.4-38.2 8.6-62 11.7-91.6 6.4-15-2.7-43.4-40.4-48.7-64.5-7-31.6 30.5-61.2 56.6-71.3 46.4-18.2 150 20.7 147.2 27z" fill="url(#k)" fill-rule="evenodd"/><path d="M350.1 504c-36-20.7-137.4-5.8-143.2 36.5-3.5 25.5-1.7 33.7 15.3 62 19.4 32.4 134.6 41.5 161.9 10.3 21.2-24.2 6.9-65 6.9-65s-8.6-25.1-40.9-43.7z" fill="url(#l)" fill-rule="evenodd"/><path d="M211 488.5c-11.3 15.5-5.4 29-3.5 43 25.2 61.4 100.6 73.9 186.3 76.3 68.8-3.6 132.9-15.8 179.9-59.9 0 0 19.7-27.2 7.6-47.6s-55.8-34-55.8-34-72.5-22.1-151-16.6S211 488.5 211 488.5z" fill="url(#m)" fill-rule="evenodd"/><path d="M422.8 382.8c61.8 36.2 127 52 185.3 108.5-32 33-81.4 50.7-129 62.5-53.6 13.4-109.1 18-155 50L198.4 441.4l224.4-58.6z" fill="url(#n)" fill-rule="evenodd"/><path d="M608.2 491.3l-4.7-4.5c-87 71-214.5 57-285.5 109.3l5.5 8.1c61.5-50.6 207-34.3 284.7-112.9z" fill="#ffe100" fill-rule="evenodd"/><g transform="translate(0,28)" fill-rule="evenodd"><path d="M397.1 457.3c-36.1 6.3-68.8 12.9-66.4 42.4 1.5 18.6 28.2 29.8 61.4 32.3s63.4-7.2 71.5-22.1c11-20.4 7.9-55.5-66.5-52.6z" fill="url(#o)"/><path d="M330 485.5s3.3 20.9 29.6 29 48.4 11.7 75.7 3.7 33.7-35.5 33.7-35.5 3.5 24.2-16.6 37-32.8 14.8-63.7 13.8c-14.3-.5-32.4-4.6-47-16.6S330 485.5 330 485.5z" fill="url(#p)"/></g><g transform="translate(0,28)" fill-rule="evenodd"><path d="M223 420.3s-18.2 19.3-16.4 34.2c2 16.9 38.9 27.6 57.6 25.3 22.6-2.8 29.3-11.9 37.3-23.4 19.2-27.4-14.3-60-78.4-36.1z" fill="url(#q)"/><path d="M207.8 444.4c18.7 28 47.9 31.2 86.3 12.5l-1 11.5c-15.4 11.4-35.3 16.2-65.5 5.5-24.8-10.7-19.5-20-19.8-29.5z" fill="url(#r)"/></g><g transform="translate(0,28)" fill-rule="evenodd"><path d="M525.6 486.4c17.4 5.8 42.2 3.2 53.1-4.4 17.4-12 18.2-27.2 14-43s-5.4-17.2-23.5-22.2c-50.7-13.9-79 58-43.6 69.6z" fill="url(#s)"/><path d="M512.4 467s30.1 13.5 51 9.8 32.2-24.5 32.2-24.5c-1.4 13.8-4.6 29-25.9 34.3a82.7 82.7 0 01-58.2-5.9l1-13.7z" fill="url(#t)"/></g><path d="M427.2 635c-1.8-7.6-7.7-16.6-16.3-16.6-7.6 2.2-16.7 8.6-19.6-3.2-4.5-11.6-14.7-1.6-20.6 2.9-8.3 5-18.7-4.3-26.8 1.9-7.7 5-.2 12 3.3 15.6-8.5 5.8-18.1-5.2-27 .4-7.4 5.3-21.3.4-24.5 11-1.8 12.4 14.3 11.5 22.6 10.7 8.3.4 19-12.3 22.6 1.1 2.2 11.4 16.2 1.9 22.1 8.8 10.4 4 3.2 17.4 12.5 22.3 8.7 9.2 19-3.1 19-12.2 6.1 1.2 16 7.5 16.8-3.6a24.5 24.5 0 0114.4-22.4c4.5-12.6 16.5-3.3 25.1-3.7 14.7-4 5.5 20.5 20 16.4 10-4.8 11.7 5.9 17.3 10.6 8.7 5.6 15-1.5 18.3-9 8-2.2 10 17 17.7 6.6 1.4-6 3.7-14 11.3-8.1 10.4 3.5 7.3-13 .7-13.5 7.4-.6 23.7-12.2 11-17.3-4.3-4.7-10-16.6-17-7.2-7.2 11-13.2-5.8-20.3-7.5-9.7-1.4-12.7 11.6-22.4 10.3-7.3 7.7-18.4 6-27.5 3a43 43 0 00-27.5 5.8c-4.8 1.8-8.5 5.2-5.2-3z" fill="#a8d81d" fill-opacity=".9" fill-rule="evenodd"/><path d="M341.4 631c-.8.5-6.9.1-9-1-2.8-1.4-3.8 2.7-5.8 4.8-2.9 2.8-5.3 3.3-9 4.2-3.8 1-7.8 1.2-11.6 2.1-2.6.7-5.8.5-8.5.5-4.1 0-4.5 1-5.3 4.3-.8 3.3.5 5.2 2.1 6.8 1.6 1.6 5.7 1.1 8 1.1h9c3.8 0 5.8-1 9-2.6 3-1.6 4.5-4 7.3-5.3 2.5-1.3 4.8-3 7.4-4.3 1.6-.8 3.1-4 3.7-5.2 1-2 2-2.2 2.7-5.3z" fill="url(#u)" fill-rule="evenodd"/><path d="M387.4 639.5c-.3-.3 1.3-4-3.2-2.6-4.2-2.6-5.2 4.5-8.4 5.8-3.6 1.4-6.5 3-10 3.7-1.3.2-2.5 6-2.7 6.8-.7 2.9-1.6 4.8-1.6 8 0 2.8 1.4 5.6 3.2 7.4a16 16 0 006.9 3.1c2.5.7 5.5 2.5 7.9 3.7l8 4.3c3 1.5 3.7 3.1 4.7-.6.8-3.3 1-6.9 1-10.5 0-3.1.2-6.3-.5-9-.6-2.6-.7-5.2 0-8 .4-1.7 7 3 7.4 3.2 1.9 1.4 5.3.3 6.9-.5 3-1.5 4.7-4.7 4.7-7.4 0-2.4 2.1-4.2 3.2-6.3 1.8-3.6 4 2.9 6.3-1.6 2.1-4.2 2.5-5.3-2-5.3-2.9 0-6-3.5-8.5-4.8-5.3-2.6-2-.1-5.8 3.7-3.1 3-2.6 5-7.4 3.7-2.5-.6-3.3 3.5-3.7 5.3-1 3.8-6-1.8-6.4-2.1z" fill="url(#v)" fill-rule="evenodd"/><path d="M498.3 635.3c-1.9-1.8-4.5.1-6.3 1.2-2 1.4-4.2 2.6-6.6 3-2.7.4-4 3.7-6.7 3.5-1.4-.2-5.4-1.5-4 1.2 1.3 2 3.4 3.4 5.6 4.3 2.4.8 2.8 3.4 2.8 5.6.9 3.1 3.7 5.3 6 7.4a13 13 0 013 8.2c.2 2.3 2.2 4 3.9 5.4 1.8 1.2 3.7-.8 4.5-2.3 2.4-3.9 2-8.5 2.1-12.8-.2-2.2 3-5.5 4.8-3.4 1.6 2.6.8 6.3 3.4 8.4a10 10 0 005 2.1c2.2-.2 2.4-3 2.8-4.8.5-2.2 1-4.8-.5-6.8a47 47 0 00-6.4-6.5c-3.1-2.3-5.8-5-8.8-7.4-1.7-2-2.8-4.4-4.6-6.3z" fill="url(#w)" fill-rule="evenodd"/><path d="M364.7 628c-.8.4-1 2.6-2.2 3.4-1.4 1.4-3.1 2.5-4 4.3-1.3 1.9-2.6 3.9-3.5 6 .3 2.4 3.2 2 5 2.2 2.4.2 5.1-.7 6.6-2.8 1.4-1.8 1-4.6 3-5.8 2.3-1 4.6.9 7 .3 2.8-.1 5.5-2 8.4-1.3 2.4.8 4.2 3.5 7 3 3-.5 6-2.1 7.5-4.9 1.3-1.7 3.3-4.1.6-5.8-1.8-1.2-3.8-2.8-6.2-2.5-2.5.1-4.9 1.4-7.3.6-3.1-1-6.2-2.1-9.4-2-2.3 0-4.4.6-6.6.1-2.3-.7-4.8.6-5.5 3l-.4 2.1z" fill="url(#x)" fill-rule="evenodd"/><path d="M219 443c21 50.6 108.4 78 193.2 79.4 73.7-3.2 139.1-14.6 167.2-63.5 6.2-20.9 20.7-34.2 2.9-70.6s-73.4-80-154.3-90.9c-61.3-8.2-115.3 7.7-173 44.7-29.7 19.1-57 50.4-36 101z" fill="#fff" fill-rule="evenodd"/><path d="M219 443c21 50.6 108.4 78 193.2 79.4 73.7-3.2 139.1-14.6 167.2-63.5 6.2-20.9 20.7-34.2 2.9-70.6s-73.4-80-154.3-90.9c-61.3-8.2-115.3 7.7-173 44.7-29.7 19.1-57 50.4-36 101z" fill="url(#y)" fill-rule="evenodd"/><path d="M219 443c21 50.6 108.4 78 193.2 79.4 73.7-3.2 139.1-14.6 167.2-63.5 6.2-20.9 20.7-34.2 2.9-70.6s-73.4-80-154.3-90.9c-61.3-8.2-115.3 7.7-173 44.7-29.7 19.1-57 50.4-36 101z" fill="url(#z)" fill-rule="evenodd"/><path d="M564.4 458.2c.2-1.5 1.4-1.4 1.7 0 .1.7-.2 1.1-.9 1.1s-1-.4-.8-1.1zm-58-1.8c-.3-.6-.2-1.4.2-1.8.5-.6.8-.5 1.2.4.2.6 0 1.5-.3 1.9-.6.5-.9.4-1.2-.5zm-91.2-5c-.5-.7 1.5-2.8 2.3-2.3 1 .6.7 2.1-.4 2.6-1.4.5-1.5.5-2-.2zm103.1-4.3c-1.4-1.4-1.3-3.6.1-3.6.6 0 1.6-.5 2.3-1 1.2-1.2 2.5-.8 2.5.7 0 1.1-2.6 5-3.3 5-.3 0-1-.6-1.6-1.1zM452 482.6c-1-1.3-1-1.6 0-2.5s1.1-.8 2.4.4c1.5 1.6 1.3 3.6-.4 3.6-.5 0-1.4-.7-2-1.5zm24.9-46.4c-1.2-.9-1.8-2.2-2.1-4.3-.6-3.8 0-5 1.6-3 1.2 1.6 1.2 1.6 2.6.4 2.9-2.6 5.6 1.5 3.8 5.8-1.2 2.8-3.2 3.2-6 1.1zm-78.5-83.8c-.6-1.5.1-5.4 1.4-7.3 1.1-1.8 2.8-2 4.6-.7 1.6 1.2 1 4-1.5 6.2-2.8 2.5-4 3-4.5 1.8zm144.6 76.7c-.6-1-1.2-5.5-.9-6 .6-1 5 1.3 5 2.5 0 2.4-3.2 5.1-4.1 3.5zm29-3.3c-.2-.2-.4-1.4-.4-2.5s-.4-2.5-1-3c-1.4-1.1 0-2.7 2.3-2.5 1.5.2 4.7 3.7 4.7 5.3 0 1.9-4.3 4-5.5 2.7zm-141.5-3.2c-.8-2.2 3.5-6.6 6-6.1 2 .4 1.7 2.2-.5 4.8-2.2 2.5-4.8 3.1-5.5 1.3zm80.8-13.6c-1.5-.8-1.5-3.4-.2-4.5.8-.7 1.4-.7 2.7-.1 2.4 1 2.8 2.7 1 4.1-1.7 1.4-2 1.5-3.5.5zm-85 75.8c-2.5-2.7-2.9-3.6-1.8-4.3 1.9-1.1 7 4 6.2 6.2-.5 1.3-1.8.8-4.4-2zM320 403.9c-.5-.7 1.8-5.6 3.2-6.7 1-.8 1.3-.7 2.5.5l1.4 1.5-2.6 2.6c-2.5 2.6-3.8 3.2-4.5 2.1zm46.3-2.3c-.2-.5.1-1.6.6-2.3s.9-1.7.7-2 0-1 .6-1.4c.7-.7 1.2-.5 2.6.9 2.9 2.9 1.9 5.7-2 5.7-1.2 0-2.3-.4-2.5-1zm104-.5c-.9-1.7-.3-2.6 1.7-2.6.9 0 1.7.3 2 .7.5.9-.9 3.3-2 3.3-.5 0-1.3-.6-1.7-1.4zm-43.3-5.9c-.5-.9.2-2 1.4-2 .5 0 1 .6 1 1.3 0 1.4-1.7 1.9-2.4.7zm87.5 88c-.2-.3-.4-1.5-.4-2.8 0-1.9.6-3 2.6-5.3 2.2-2.4 2.8-2.7 3.7-2 1.5 1.2 1.3 7.3-.4 9-1.3 1.5-4.5 2-5.5 1zm-107-90.6c-3.1-1.1-3.7-2.4-1.8-3.6.9-.5 1.5-.5 2.3.1.6.5 1.9 1.1 2.7 1.5 1 .4 1.5 1.1 1.3 1.7-.3 1.6-1 1.6-4.5.3zm131-.9c-1-1.3 0-2.3 2.9-2.5 2.8-.3 3.6.6 2 2.3-1.3 1.3-3.9 1.4-4.8.2zm-194.4-6c-.6-.7-.6-1 0-1.4 1-.7 2.4.8 1.5 1.7-.5.5-1 .4-1.5-.3zm96 .1c-2-2 .5-7.1 3.4-7.1 1.2 0 1.8.7 2.8 3.6.8 2 1.2 3.8 1 4-.7.7-6.5.3-7.3-.5zm133.7-.7c-.6-1.6.9-4.6 2.1-4.3 1.7.3 2.8 3.7 1.5 4.5-1.4 1-3.2.8-3.6-.2zm-264-5.5c-.5-1.6 1.3-4.5 3-4.8 1-.1 1.4.2 1.6 2.2.2 1.3 0 2.6-.4 3-1 1-3.7.8-4.1-.4zm183.5-2c-.3-.3-.5-1.2-.5-2.2 0-2.7 3.7-5.9 7.4-6.4s5 .8 2 1.8c-1.5.5-2.1 1.2-2.1 2.2 0 2.4-2.5 5-4.6 5-1 0-2-.2-2.2-.4zm-25.4-5c-2.9-3.4-3-3.8-2.2-4.8.7-.9 1-.8 2.7.4 2.6 1.8 3.6 3.7 2.6 4.9-1.1 1.3-1.5 1.2-3-.5zm-121.4-.3c-1.3-1.3-.3-3.8 3-6.8 1.9-1.8 3.7-3 3.9-2.8.6.6-.7 8.1-1.6 9.2-.7.9-4.6 1.1-5.3.4zm24.3-2.3c-.3-.5.1-1.3 1-2 .7-.6 1.4-1.5 1.3-2-.4-2.6 1.7-3.6 3.3-1.6.7.8.5 1.5-1.3 3.7-2.1 2.7-3.5 3.3-4.3 1.9zm170.3-.5c0-1.6 1.8-2.7 4.2-2.7 3.9 0 2.5 2.9-1.7 3.6-2.3.4-2.5.3-2.5-.9zm-138.6-.5c-.6-1.4 1.3-4.5 2.9-4.7 1.7-.3 3 1.3 2.7 3.6-.2 1.6-.6 1.9-2.7 2-1.9.2-2.6 0-3-.9zm45.6 77.2c-1.4-.4-1.6-.8-1.6-2.6.2-3 2-4.8 4.5-4.6 1.9.2 2 .5 2.2 3 .2 2.2 0 3-1.3 3.8-.8.6-1.6 1-1.8 1l-2-.6zM432.9 364c-.5-1.4 0-3.5.7-3.5 1 0 1.3 3 .4 3.8-.4.5-.8.4-1-.3zm87.9 5.3c-2.4-4-1.5-5 1.6-1.8 1.1 1.1 1.7 2.3 1.5 3-.7 1.5-1.7 1.2-3.1-1.2zm-77.2-16c-2.8-2.8-1.8-5.5 1.3-3.4 1.7 1 2.2 3.9 1 4.6-.4.3-1.4-.3-2.3-1.2zm30.8-1.3c-.8-1-.4-1.8 1-1.8 1 0 1.2 1.8.3 2.3-.3.2-1 0-1.3-.5zM297 347.7c0-2 2.9-5 4-4.3 1.1.6.6 3.3-1 4.7-2 2-3 1.9-3-.4zM470.2 472c-1.2-1.2.6-8.8 2.1-8.8a7 7 0 012.4 1.3c3 2.5 1.6 8-2.2 8-1 0-2-.3-2.3-.5zm48.6-128.6c-.5-.4-2.1-1-3.7-1.1-2.2-.3-2.8-.7-2.8-1.7 0-1.1.6-1.4 3.6-1.8 6.4-1 11.7 1.6 9.3 4.4-1 1.2-5.4 1.3-6.4.2zm-163.5-2.3c-.6-1.3-.4-2.1.5-3.8 1.8-3 3.1-2.7 3 .8-.2 4.5-2.3 6.3-3.5 3zm116 .8c-.6-1.3 1-4.9 2.3-5.6 1-.6 3.6 0 4.2 1.1.2.4-.4 1.7-1.3 3-1.9 2.6-4.5 3.4-5.3 1.5zm-83.8-3.5c-.2-.3-.1-1 .2-1.5.6-1 2.6-.3 2.8 1 .2.8-2.6 1.3-3 .5zm33-1.5c-1-1-1.2-1.6-.5-3 1.4-3 6-3.9 6-1.1 0 1.6-2.4 5.4-3.5 5.4-.5 0-1.4-.5-2-1.3zm-111.2-7.3c-.6-1 1-2.6 2.4-2.6 1.9 0 2.1 1.1.5 2.3-1.8 1.2-2.3 1.3-2.9.3zm179.6-3.5c-.4-.6-.7-1.7-.6-2.5.2-1.4.5-1.5 3.5-1.3 3.5.2 4.4 1 4.2 3-.2 1.1-.8 1.4-3.2 1.6-2.1.1-3.3-.1-3.9-.8zm-48.5-1.8c-1.7-1-1.6-4.6.2-4.6.7 0 1.3.4 1.3.8s.5 1.3 1 2c1.9 2 0 3.3-2.5 1.8zm-63-2.6c-.7-1.2 3.8-6 5.7-6 2.4 0 3.6 1.5 2.5 3.2-1.7 2.7-7 4.6-8.2 2.8zm-33.6 90c-.5-1.5 2.4-5.8 4.2-6.3 2.8-.7 3.1 1.1.7 3.7-2.9 3-4.4 3.7-4.9 2.5zm114.1-91c-1.2-.6-1-2.6.6-4 1.5-1.3 4.2-.8 5.4 1.2 1.5 2.2-2.6 4-6 2.7zm-40.3-13c-1.1-1.1-1-3.1.2-3.6 1.8-.7 4.4 1 4.1 2.6-.2 1.7-3 2.4-4.3 1zm-23.6-1c-1-1.7 1.3-3.8 3.3-3 1.2.4 1.3 2.8 0 2.8-.5 0-1.4.2-1.9.4s-1.1 0-1.4-.3zm-38.7-5.3c0-.7.8-1.7 1.8-2.3 1.6-1 2-1 3.5-.2 2 1.1 1.7 1.8-1.3 2.8-3.2 1.1-4 1-4-.3z" fill="url(#A)"/></g></svg>