<svg viewBox="0 0 96 96" xmlns="http://www.w3.org/2000/svg">
  <style>
    .st0{display:none}.st2{fill:none;stroke:#0003e7;stroke-width:2;stroke-linecap:round;stroke-linejoin:round;stroke-miterlimit:10}
  </style>
  <g id="koper">
    <path class="st2" d="M48.5 25.3c.7 0 1 .3 1 .3v18.8c0 .1-.4.4-1 .4h-.1c-.6 0-.9-.3-1-.3V25.6c.1-.1.5-.3 1.1-.3z"/>
    <path class="st2" d="M48 74.4c-11.6 0-21.1-9.5-21.1-21.1 0-8.3 4.3-15.5 11.2-19 .1 0 .2-.1.3-.1h.2c.2.1.3.2.4.4.1.2.1.4 0 .5-.1.2-.2.3-.4.4-6.4 3.2-10.4 10-10.4 17.7 0 10.9 8.8 19.7 19.7 19.7s19.7-8.8 19.7-19.7c0-7.7-4-14.4-10.3-17.7-.3-.2-.5-.6-.3-.9.2-.3.6-.5.9-.3C64.7 37.8 69 45 69 53.2c.1 11.8-9.4 21.2-21 21.2z"/>
  </g>
</svg>
