<?xml version="1.0" ?><!DOCTYPE svg  PUBLIC '-//W3C//DTD SVG 1.1//EN'  'http://www.w3.org/Graphics/SVG/1.1/DTD/svg11.dtd'><svg style="enable-background:new 0 0 35.999 36.005;" version="1.1" viewBox="0 0 35.999 36.005" xml:space="preserve" xmlns="http://www.w3.org/2000/svg" xmlns:xlink="http://www.w3.org/1999/xlink"><g id="Options"><g id="Layer_14"><g id="ClipView_11"><path d="M0,0v36.005h35.999V0H0z" marker-end="none" marker-start="none" style="fill:none;"/><g><defs><rect height="36.005" id="SVGID_1_" width="35.999"/></defs><clipPath id="SVGID_2_"><use style="overflow:visible;" xlink:href="#SVGID_1_"/></clipPath><g style="clip-path:url(#SVGID_2_);"><g id="Group_28"><path d="M8.801,33.926l-0.21-0.178        c-0.275-0.233-0.346-0.629-0.168-0.943l2.596-4.576c0.279-0.494-0.531-1.287-1.596-1.889        c-1.024-0.581-2.174-0.874-2.445-0.401l-2.589,4.575C4.213,30.826,3.84,30.969,3.5,30.856l-0.271-0.09        c-0.205-0.068-0.371-0.222-0.455-0.421L2.24,29.073l-0.03-0.086c-0.496-1.747-0.31-3.686,0.652-5.385        c1.391-2.459,4.047-3.757,6.688-3.554l1.119,0.179l9.671-9.665l-0.006-0.052l-0.213-1.264        c-0.099-1.343,0.183-2.729,0.897-3.986c0.967-1.694,2.534-2.845,4.283-3.324c0.031-0.009,0.063-0.015,0.096-0.02l1.37-0.188        c0.211-0.028,0.424,0.034,0.586,0.171l0.21,0.178c0.275,0.233,0.346,0.628,0.168,0.942l-2.592,4.582        c-0.277,0.488,0.53,1.276,1.596,1.887c1.026,0.577,2.171,0.87,2.44,0.397l2.592-4.575c0.175-0.31,0.544-0.453,0.882-0.344        l0.264,0.085c0.208,0.066,0.376,0.22,0.461,0.421l0.539,1.275c0.013,0.03,0.023,0.06,0.032,0.09        c0.489,1.747,0.312,3.678-0.649,5.382c-1.62,2.849-4.928,4.146-7.946,3.344l-9.566,9.562l0.243,1.342        c0.122,1.379-0.157,2.804-0.892,4.096c-0.963,1.706-2.536,2.849-4.285,3.328c-0.032,0.009-0.065,0.015-0.097,0.02        l-1.366,0.186C9.176,34.125,8.963,34.063,8.801,33.926z" marker-end="none" marker-start="none" style="fill:#526073;"/><linearGradient gradientTransform="matrix(1 0 0 1 411.331 104.681)" gradientUnits="userSpaceOnUse" id="SVGID_3_" x1="-390.7001" x2="-394.9751" y1="-101.8226" y2="-76.6226"><stop offset="0" style="stop-color:#FFFFFF"/><stop offset="0.5669" style="stop-color:#BEC6D1"/><stop offset="1" style="stop-color:#FFFFFF"/></linearGradient><path d="M9.286,33.353l-0.21-0.178l2.596-4.577        c0.712-1.26-1.131-2.488-1.879-2.911c-0.727-0.413-2.751-1.37-3.466-0.119l-2.59,4.576l-0.271-0.09l-0.534-1.272        c-0.443-1.56-0.277-3.291,0.583-4.811c1.42-2.51,4.317-3.669,6.988-3.014c0.246,0.058,0.509-0.012,0.689-0.192l9.69-9.684        c0.184-0.188,0.253-0.454,0.188-0.706c-0.414-1.549-0.249-3.249,0.6-4.744c0.865-1.515,2.265-2.544,3.829-2.972l1.37-0.188        l0.21,0.178l-2.592,4.582c-0.712,1.254,1.132,2.481,1.878,2.909c0.724,0.407,2.752,1.366,3.463,0.115l2.592-4.576l0.264,0.085        l0.539,1.275c0.438,1.563,0.279,3.288-0.579,4.81c-1.447,2.545-4.404,3.705-7.108,2.986c-0.254-0.068-0.518,0.003-0.703,0.185        l-9.594,9.588c-0.186,0.188-0.261,0.46-0.184,0.713c0.457,1.583,0.305,3.332-0.572,4.872c-0.86,1.523-2.264,2.545-3.831,2.974        L9.286,33.353z" marker-end="none" marker-start="none" style="fill:url(#SVGID_3_);"/></g><linearGradient gradientTransform="matrix(1 0 0 1 406.518 122.757)" gradientUnits="userSpaceOnUse" id="SVGID_4_" x1="-387.7551" x2="-390.2171" y1="-104.1604" y2="-106.4114"><stop offset="0" style="stop-color:#E6E9ED"/><stop offset="1" style="stop-color:#526073"/></linearGradient><path d="M12.557,23.491c-0.467-0.46-0.467-1.212,0-1.677       l9.362-9.364c0.463-0.461,1.216-0.462,1.68-0.001c0.462,0.463,0.46,1.218-0.001,1.679l-9.364,9.363       C13.769,23.958,13.018,23.958,12.557,23.491z" marker-end="none" marker-start="none" style="fill:url(#SVGID_4_);"/><g id="Group_29"><path d="M3.715,30.138l-0.249-0.084        l-0.534-1.272c-0.443-1.56-0.277-3.291,0.583-4.811c1.42-2.51,4.317-3.669,6.988-3.014c0.246,0.058,0.509-0.012,0.689-0.192        l9.69-9.684c0.184-0.188,0.253-0.454,0.188-0.706c-0.414-1.549-0.249-3.249,0.6-4.744c0.865-1.515,2.265-2.544,3.829-2.972        l1.37-0.188l0.21,0.178l-0.577,1.016l-1.03,0.3l0.334-0.59l-0.139,0.019l-0.973,0.37c-0.965,0.477-1.801,1.237-2.373,2.239        c-0.746,1.314-0.893,2.81-0.526,4.182c0.131,0.507-0.008,1.043-0.38,1.424l-9.693,9.687c-0.371,0.37-0.902,0.507-1.395,0.391        c-2.358-0.579-4.91,0.445-6.16,2.654c-0.569,1.006-0.793,2.114-0.705,3.185l0.186,1.027l0.054,0.129l0.179-0.317L3.715,30.138        z" marker-end="none" marker-start="none" style="fill:#FFFFFF;fill-opacity:0.5647;"/><path d="M9.286,33.353l-0.21-0.178        l0.083-0.149l1.442-1.021l-0.253,0.447l0.133-0.018l0.977-0.37c0.967-0.476,1.804-1.235,2.372-2.24        c0.773-1.357,0.908-2.896,0.505-4.289c-0.16-0.528,0.003-1.083,0.372-1.455l9.597-9.592c0.376-0.37,0.914-0.514,1.425-0.377        c2.382,0.633,4.988-0.39,6.262-2.631c0.566-1.005,0.787-2.11,0.698-3.182l-0.133-0.737l0.419-1.104l0.248,0.582        c0.438,1.563,0.279,3.288-0.579,4.81c-1.447,2.545-4.404,3.705-7.108,2.986c-0.254-0.068-0.518,0.003-0.703,0.185        l-9.594,9.588c-0.186,0.188-0.261,0.46-0.184,0.713c0.457,1.583,0.305,3.332-0.572,4.872c-0.86,1.523-2.264,2.545-3.831,2.974        L9.286,33.353z M3.737,30.144l-0.022-0.006l0.166-1.773l1.794-3.167c1.159-2.029,4.075-0.397,4.487-0.163        c0.345,0.196,1.922,1.107,2.333,2.363l-0.767,0.115c-0.335-0.827-1.408-1.527-1.935-1.826        c-0.727-0.413-2.751-1.37-3.466-0.119L3.737,30.144z M25.994,10.793c-0.464-0.267-3.306-1.913-2.16-3.931l1.638-2.897        l1.03-0.3l-2.015,3.566c-0.712,1.254,1.132,2.481,1.878,2.909c0.442,0.251,1.373,0.705,2.192,0.736l-0.037,0.751        C27.388,11.573,26.235,10.929,25.994,10.793z" marker-end="none" marker-start="none" style="fill:#526073;fill-opacity:0.3255;"/><path d="M28.521,11.627l0.036-0.751        c0.52,0.017,0.994-0.135,1.271-0.621l2.592-4.576l0.264,0.085l0.291,0.693l-0.419,1.104l-0.052-0.294l-0.052-0.123        l-1.972,3.482C30.019,11.437,29.274,11.663,28.521,11.627z" marker-end="none" marker-start="none" style="fill:#FFFFFF;fill-opacity:0.3255;"/><path d="M9.159,33.026l2.513-4.428        c0.208-0.372,0.197-0.739,0.056-1.085l0.767-0.115c0.158,0.48,0.145,1.01-0.171,1.57l-1.723,3.037L9.159,33.026z" marker-end="none" marker-start="none" style="fill:#FFFFFF;fill-opacity:0.5647;"/></g></g></g></g></g></g><g id="Layer_1"/></svg>