<svg height="24" width="24" xmlns="http://www.w3.org/2000/svg">
  <path d="M4 6c-1.1046 0-2 .9-2 2v10c0 1.1.8954 2 2 2h16c1.105 0 2-.9 2-2V8c0-1.1-.895-2-2-2H4z" fill="#95a5a6"/>
  <path d="M4 5c-1.1046 0-2 .8954-2 2v10c0 1.105.8954 2 2 2h16c1.105 0 2-.895 2-2V7c0-1.1046-.895-2-2-2H4z" fill="#bdc3c7"/>
  <path fill="#ecf0f1" d="M4 7h7v10H4z"/>
  <path d="M7.3125 8A2.5 2.5 0 005 10.5a2.5 2.5 0 00.8125 1.844c-.7184.297-1.3395.769-1.8125 1.375V17h7v-3.312c-.474-.592-1.1053-1.052-1.8125-1.344A2.5 2.5 0 0010 10.5 2.5 2.5 0 007.3125 8z" fill="#2c3e50"/>
  <path d="M13 8v1h4V8h-4zm0 2v1h7v-1h-7zm0 2v1h7v-1h-7z" fill="#7f8c8d"/>
</svg>
